HIERARCHY
ROOT Hips
{
	OFFSET -0.001795 -0.223333 0.028219
	CHANNELS 6 Xposition Yposition Zposition Zrotation Yrotation Xrotation 
	JOINT LeftUpLeg
	{
		OFFSET 0.069520 -0.091406 -0.006815
		CHANNELS 3 Zrotation Yrotation Xrotation
		JOINT LeftLeg
		{
			OFFSET 0.034277 -0.375199 -0.004496
			CHANNELS 3 Zrotation Yrotation Xrotation
			JOINT LeftFoot
			{
				OFFSET -0.013596 -0.397961 -0.043693
				CHANNELS 3 Zrotation Yrotation Xrotation
				JOINT LeftToe
				{
					OFFSET 0.026358 -0.055791 0.119288
					CHANNELS 3 Zrotation Yrotation Xrotation
					End Site
					{
						OFFSET 0.000000 0.000000 0.000000
					}
				}
			}
		}
	}
	JOINT RightUpLeg
	{
		OFFSET -0.067670 -0.090522 -0.004320
		CHANNELS 3 Zrotation Yrotation Xrotation
		JOINT RightLeg
		{
			OFFSET -0.038290 -0.382569 -0.008850
			CHANNELS 3 Zrotation Yrotation Xrotation
			JOINT RightFoot
			{
				OFFSET 0.015774 -0.398415 -0.042312
				CHANNELS 3 Zrotation Yrotation Xrotation
				JOINT RightToe
				{
					OFFSET -0.025372 -0.048144 0.123348
					CHANNELS 3 Zrotation Yrotation Xrotation
					End Site
					{
						OFFSET 0.000000 0.000000 0.000000
					}
				}
			}
		}
	}
	JOINT Spine
	{
		OFFSET -0.002533 0.108963 -0.026696
		CHANNELS 3 Zrotation Yrotation Xrotation
		JOINT Spine1
		{
			OFFSET 0.005487 0.135180 0.001092
			CHANNELS 3 Zrotation Yrotation Xrotation
			JOINT Spine2
			{
				OFFSET 0.001457 0.052922 0.025425
				CHANNELS 3 Zrotation Yrotation Xrotation
				JOINT Neck
				{
					OFFSET -0.002778 0.213870 -0.042857
					CHANNELS 3 Zrotation Yrotation Xrotation
					JOINT Head
					{
						OFFSET 0.005152 0.064970 0.051349
						CHANNELS 3 Zrotation Yrotation Xrotation
						End Site
						{
							OFFSET 0.000000 0.000000 0.000000
						}
					}
				}
				JOINT LeftShoulder
				{
					OFFSET 0.078845 0.121749 -0.034090
					CHANNELS 3 Zrotation Yrotation Xrotation
					JOINT LeftArm
					{
						OFFSET 0.090977 0.030469 -0.008868
						CHANNELS 3 Zrotation Yrotation Xrotation
						JOINT LeftForeArm
						{
							OFFSET 0.259612 -0.012772 -0.027456
							CHANNELS 3 Zrotation Yrotation Xrotation
							JOINT LeftHand
							{
								OFFSET 0.249234 0.008986 -0.001171
								CHANNELS 3 Zrotation Yrotation Xrotation
								End Site
								{
									OFFSET 0.000000 0.000000 0.000000
								}
							}
						}
					}
				}
				JOINT RightShoulder
				{
					OFFSET -0.081759 0.118833 -0.038615
					CHANNELS 3 Zrotation Yrotation Xrotation
					JOINT RightArm
					{
						OFFSET -0.096012 0.032551 -0.009143
						CHANNELS 3 Zrotation Yrotation Xrotation
						JOINT RightForeArm
						{
							OFFSET -0.253742 -0.013329 -0.021401
							CHANNELS 3 Zrotation Yrotation Xrotation
							JOINT RightHand
							{
								OFFSET -0.255298 0.007772 -0.005559
								CHANNELS 3 Zrotation Yrotation Xrotation
								End Site
								{
									OFFSET 0.000000 0.000000 0.000000
								}
							}
						}
					}
				}
			}
		}
	}
}
MOTION
Frames: 10
Frame Time: 0.050000
-0.003283 0.931591 -0.071605 -5.622068 1.086739 12.859067 16.261953 0.549577 -24.189728 -5.623417 0.738617 9.094331 2.166933 8.383137 12.748780 0.000000 0.000000 0.000000 -6.147683 1.166643 -17.612097 6.335736 -0.739686 4.752330 -10.428562 -23.354770 21.099099 0.000000 0.000000 0.000000 -12.625111 2.554311 28.957640 3.832481 -0.892674 -12.252612 2.594472 8.885079 31.307979 -2.963311 4.406843 -12.939593 0.000000 0.000000 0.000000 -0.145852 -16.284136 5.444365 -26.240258 -63.105891 5.465319 23.154638 -25.973504 -4.315835 0.000000 0.000000 0.000000 -15.131750 25.198205 4.759438 46.134379 52.951867 18.230562 -47.131536 48.075261 -16.678325 0.000000 0.000000 0.000000 
-0.003123 0.931720 -0.072658 -5.552007 1.343317 12.730548 16.222920 0.525156 -24.297130 -5.488318 0.708572 9.207136 1.952488 8.159271 13.116057 0.000000 0.000000 0.000000 -6.532145 1.116201 -17.589565 6.566345 -0.782659 4.898109 -10.524976 -23.456799 21.086257 0.000000 0.000000 0.000000 -12.777854 2.603498 29.464870 3.728211 -0.838280 -12.520692 2.651238 9.327558 31.397415 -3.120703 4.583375 -12.592955 0.000000 0.000000 0.000000 0.041192 -16.389561 5.448900 -25.269334 -64.084450 4.967965 21.976181 -25.690877 -4.018645 0.000000 0.000000 0.000000 -16.461919 24.887310 4.243232 45.751377 51.821072 17.738756 -46.499527 49.718161 -17.038294 0.000000 0.000000 0.000000 
-0.002497 0.932796 -0.073414 -5.348728 1.704152 12.627013 15.779223 0.414557 -24.236744 -5.329215 0.667934 9.064126 1.744649 7.888595 13.177403 0.000000 0.000000 0.000000 -6.886979 1.057642 -17.435213 6.472419 -0.780885 5.067177 -10.512744 -23.357705 21.440945 0.000000 0.000000 0.000000 -12.663451 2.544882 29.722304 3.378589 -0.708595 -12.654526 2.513183 9.589205 31.507243 -3.505265 4.902644 -12.289315 0.000000 0.000000 0.000000 0.498592 -16.124725 5.335909 -25.869600 -64.521880 5.225439 21.431807 -26.781417 -4.085624 0.000000 0.000000 0.000000 -17.704468 24.024727 3.647743 45.430368 50.100032 16.934697 -45.581002 52.162356 -17.545903 0.000000 0.000000 0.000000 
-0.001638 0.933937 -0.073866 -5.204045 1.812290 12.717285 15.185601 0.299415 -24.167515 -4.949519 0.592678 8.823459 1.497712 7.576735 13.437113 0.000000 0.000000 0.000000 -7.398238 1.004255 -17.497342 6.523754 -0.794762 5.223449 -10.610951 -23.454392 21.781084 0.000000 0.000000 0.000000 -12.581791 2.508051 29.648184 3.101792 -0.609986 -12.760857 2.400570 9.877676 31.639044 -3.667680 5.071978 -12.363162 0.000000 0.000000 0.000000 0.900798 -15.785832 5.209960 -26.881837 -65.365878 5.820216 20.859233 -27.431317 -4.048710 0.000000 0.000000 0.000000 -18.667047 23.157811 3.160438 44.894787 48.368769 15.994934 -45.315552 54.205265 -18.163811 0.000000 0.000000 0.000000 
-0.000692 0.934916 -0.074105 -5.046222 2.054289 12.628980 14.766060 0.190449 -23.681221 -4.546709 0.509935 8.201833 1.222647 7.177585 13.468490 0.000000 0.000000 0.000000 -7.626527 0.958851 -17.136439 6.287022 -0.759373 5.009397 -10.796580 -23.661404 22.051043 0.000000 0.000000 0.000000 -12.430860 2.428801 29.604221 2.781173 -0.491926 -12.972276 2.325165 9.815911 31.689532 -3.781769 5.145076 -11.997473 0.000000 0.000000 0.000000 1.035105 -15.274372 5.040648 -28.630217 -65.486945 6.799637 20.996382 -28.989196 -4.319886 0.000000 0.000000 0.000000 -18.873415 22.586238 2.975658 44.163247 46.664932 14.839940 -44.035966 55.657311 -18.028738 0.000000 0.000000 0.000000 
0.000136 0.935211 -0.074435 -4.866526 2.115689 12.617210 14.506638 0.132405 -23.392414 -4.455257 0.491417 8.037254 0.955161 6.769101 13.509481 0.000000 0.000000 0.000000 -7.853315 0.932979 -17.161553 5.898072 -0.705011 5.229130 -10.676642 -23.475760 22.056202 0.000000 0.000000 0.000000 -12.319512 2.386506 29.578598 2.523081 -0.409766 -12.923876 2.000882 9.626100 31.612061 -3.728060 5.105662 -12.388651 0.000000 0.000000 0.000000 1.243313 -14.810656 4.896717 -29.899377 -65.634090 7.592503 21.431613 -30.396095 -4.643754 0.000000 0.000000 0.000000 -18.945169 21.948920 2.847721 43.099506 45.774186 13.902786 -43.312859 55.407064 -17.545283 0.000000 0.000000 0.000000 
0.000722 0.935486 -0.075102 -4.847231 1.879549 12.566192 14.411195 0.121694 -22.899049 -4.225466 0.454687 7.562332 0.820212 6.550330 13.609950 0.000000 0.000000 0.000000 -7.954547 0.927293 -17.044540 5.658334 -0.661899 5.103732 -10.663911 -23.463235 22.322593 0.000000 0.000000 0.000000 -12.275308 2.387619 29.454764 2.295125 -0.345150 -12.811602 1.756940 9.326086 31.570107 -3.881920 5.146208 -11.943800 0.000000 0.000000 0.000000 1.461684 -14.752321 4.891034 -29.531105 -65.712679 7.514466 22.082387 -31.233603 -4.943174 0.000000 0.000000 0.000000 -19.177113 21.615911 2.757861 41.698713 45.717695 13.186007 -42.673254 54.315802 -16.874341 0.000000 0.000000 0.000000 
0.001057 0.935389 -0.076311 -4.782481 1.711815 12.493495 14.418362 0.132171 -22.712136 -4.241346 0.460265 7.538856 0.544270 6.057526 13.511590 0.000000 0.000000 0.000000 -7.872791 0.938623 -17.028664 5.043776 -0.567681 5.356536 -10.152721 -22.774745 21.925032 0.000000 0.000000 0.000000 -12.195174 2.384375 29.601843 2.203543 -0.320417 -12.787952 1.351781 9.016177 31.546397 -3.861344 5.102867 -12.312264 0.000000 0.000000 0.000000 2.057948 -14.428063 4.798654 -29.018999 -66.060257 7.382579 22.884440 -32.122814 -5.303577 0.000000 0.000000 0.000000 -19.219996 21.101540 2.688468 39.929034 46.386568 12.649325 -41.605225 52.073444 -15.632387 0.000000 0.000000 0.000000 
0.000921 0.935563 -0.077967 -4.862816 1.682483 12.655081 14.606221 0.165959 -22.889131 -4.202188 0.454155 7.447953 0.487638 6.005736 13.671872 0.000000 0.000000 0.000000 -7.841641 0.953734 -17.264197 4.693781 -0.512878 5.378573 -10.001198 -22.547891 22.150954 0.000000 0.000000 0.000000 -12.042248 2.355505 29.777919 2.232366 -0.333783 -12.702455 1.156558 8.727700 31.549722 -3.999598 5.150401 -12.063542 0.000000 0.000000 0.000000 2.255548 -14.589169 4.857940 -26.633910 -66.707364 6.211601 23.414190 -32.116671 -5.435801 0.000000 0.000000 0.000000 -19.124831 20.581789 2.642053 38.787003 47.007618 12.325000 -41.577847 50.122857 -14.946946 0.000000 0.000000 0.000000 
0.000307 0.935519 -0.079827 -5.035375 1.487934 12.739761 14.769945 0.215306 -23.068712 -4.054493 0.432957 7.422712 0.363364 5.809375 13.778664 0.000000 0.000000 0.000000 -7.581630 1.000694 -17.649129 4.340027 -0.455020 5.444451 -9.587592 -21.993704 21.914690 0.000000 0.000000 0.000000 -11.705083 2.272304 29.822810 2.286685 -0.374094 -12.338436 0.722163 8.403235 31.213924 -3.732392 4.893491 -12.210568 0.000000 0.000000 0.000000 2.781071 -14.541541 4.846399 -24.350783 -67.317142 5.121845 23.580052 -31.945549 -5.438479 0.000000 0.000000 0.000000 -18.546157 20.405072 2.826117 37.146370 48.157150 11.964521 -40.540239 47.995790 -13.875299 0.000000 0.000000 0.000000 
